<?xml version="1.0" encoding="UTF-8"?>
<svg width="127px" height="32px" viewBox="0 0 127 32" version="1.1" xmlns="http://www.w3.org/2000/svg" xmlns:xlink="http://www.w3.org/1999/xlink">
    <!-- Generator: Sketch 59.1 (86144) - https://sketch.com -->
    <title>Artboard</title>
    <desc>Created with Sketch.</desc>
    <defs>
        <linearGradient x1="7.81861628%" y1="23.5909136%" x2="81.6812129%" y2="82.5204921%" id="linearGradient-1">
            <stop stop-color="#0CF947" offset="0%"></stop>
            <stop stop-color="#0BE050" offset="35%"></stop>
            <stop stop-color="#08A964" offset="100%"></stop>
        </linearGradient>
    </defs>
    <g id="Artboard" stroke="none" stroke-width="1" fill="none" fill-rule="evenodd">
        <g id="Logo/Mint/Dark-Copy-2" fill-rule="nonzero">
            <path d="M70.2536359,11.4184741 C71.3277788,12.7562804 71.8662169,14.7474009 71.8689501,17.3918358 L71.8689501,32 L66.1292548,32 L66.1292548,18.5652506 C66.1292548,17.1537516 65.9119664,16.0866244 65.485589,15.3638689 C65.0598008,14.6444488 64.2848392,14.2287162 63.4725959,14.2839871 C62.6222924,14.2741818 61.7837898,14.4908332 61.0373252,14.9132096 C60.0630062,15.4934599 59.118755,16.1263888 58.2084754,16.8093799 L58.2084754,32 L52.4687801,32 L52.4687801,18.5652506 C52.4687801,17.1537516 52.2514916,16.0866244 51.8251143,15.3638689 C51.3993261,14.6444488 50.6243644,14.2287162 49.8121211,14.2839871 C48.9630521,14.2735755 48.125728,14.4902872 47.3809502,14.9132096 C46.3909492,15.5046685 45.432901,16.1518645 44.5111026,16.8518949 L44.5111026,32 L38.7714073,32 L38.7714073,10.1345202 L42.5309077,10.1345202 L43.4615583,12.4898529 C44.729364,11.5585063 46.1072192,10.7997893 47.5613406,10.2323048 C48.7482913,9.73675475 50.0093233,9.45910249 51.2880428,9.41176471 C54.2070878,9.41176471 56.1831829,10.4037821 57.216328,12.3878168 C58.4826183,11.4904332 59.8497436,10.756589 61.2874119,10.2025443 C62.4635716,9.71819576 63.7122658,9.45058215 64.977216,9.41176471 C67.4179531,9.41176471 69.1767597,10.0806678 70.2536359,11.4184741 Z" id="Shape" fill="#FFFFFF"></path>
            <path d="M79.8692579,6.5876923 C79.0026022,6.60375765 78.1667742,6.26274332 77.5539839,5.64307023 C76.9255501,5.02895797 76.5791874,4.17760477 76.5984072,3.2942802 C76.5739116,2.41459375 76.9142483,1.5645899 77.5371455,0.949745235 C78.1484034,0.327251861 78.9848751,-0.0155623658 79.8524195,0.000868106119 C80.7417997,-0.0195926013 81.6019514,0.322357149 82.2392565,0.949745235 C82.8805354,1.55481856 83.2358411,2.40778349 83.2158812,3.2942802 C83.2348961,4.18183384 82.8798447,5.03573525 82.2392565,5.64307023 C81.6046235,6.26344916 80.7519867,6.60328884 79.8692579,6.5876923 L79.8692579,6.5876923 Z" id="Shape" fill="#FFDC00"></path>
            <polygon id="Rectangle-path" fill="#FFFFFF" points="76.5971705 10.3529412 82.271035 10.3529412 82.271035 32 76.5971705 32"></polygon>
            <path d="M93.8146773,32 L87.9448995,32 L87.9448995,10.1262862 L91.789604,10.1262862 L92.7748881,12.4825058 C94.1127931,11.5294787 95.5746176,10.7694284 97.1185237,10.2241076 C98.4374408,9.72507177 99.8285968,9.45059215 101.235754,9.41176471 C104.01132,9.41176471 105.956732,10.1943358 107.07199,11.7594781 C108.187248,13.3246204 108.746274,15.505045 108.749069,18.300752 L108.749069,32 L102.879291,32 L102.879291,18.5601914 C102.879291,17.2077043 102.599778,16.1557699 102.040752,15.4043882 C101.496677,14.6590056 100.623029,14.2366096 99.7096114,14.2773157 C98.7029979,14.2731888 97.7098864,14.5122869 96.8124567,14.9748247 C95.7740354,15.5244702 94.7763432,16.1499044 93.8272554,16.8461905 L93.8146773,32 Z" id="Shape" fill="#FFFFFF"></path>
            <path d="M123.371337,9.83021881 L125.175695,14.2219153 L119.394214,14.2219153 L119.394214,23.2663243 C119.347944,24.2561498 119.643207,25.2321197 120.231503,26.0339217 C120.803785,26.7445156 121.688446,27.1367166 122.605218,27.0862716 C123.436024,27.0746392 124.25388,26.8807817 124.999864,26.5186656 L126.716307,30.6617755 C126.108197,31.0870546 125.427423,31.400057 124.706813,31.585689 C123.926302,31.8394655 123.112517,31.9790428 122.291234,32 C119.547717,32 117.408444,31.3274352 115.873414,29.9823055 C114.338384,28.6371758 113.570869,26.7479177 113.570869,24.3145311 L113.570869,14.2219153 L110.640357,14.2219153 L110.640357,9.83021881 L113.570869,9.83021881 L113.570869,4.7756247 L119.398401,3.76470588 L119.398401,9.83021881 L123.371337,9.83021881 Z" id="Shape" fill="#FFFFFF"></path>
            <g id="leaf" transform="translate(0.000000, 0.800000)">
                <path d="M10.2064356,28.0203481 C17.8571756,31.9139776 27.2506873,31.2 35.0067213,31.2 C35.0067213,24.5953216 33.2060757,11.6035943 24.7117713,8.99474638 C18.834971,7.18671567 9.52269654,7.29404169 1.75407837,0 C-3.05306874,15.4673312 2.77657902,24.2391309 10.2064356,28.0203481 Z" id="Shape" fill="url(#linearGradient-1)"></path>
                <path d="M10.2064356,28.0203481 C17.6855006,31.8266084 27.1426485,31.2 34.8986825,31.2 C29.5923639,12.9999831 3.62911742,18.7531587 1.75407837,0 C-3.05306874,15.4673312 2.77569796,24.2386825 10.2064356,28.0203481 Z" id="Shape" fill="#FFFFFF" opacity="0.2"></path>
            </g>
        </g>
    </g>
</svg>